<svg width="24px" height="24px" viewBox="0 0 24 24" fill="none" xmlns="http://www.w3.org/2000/svg">
<path fill-rule="evenodd" clip-rule="evenodd" d="M9.02977 3.3437C10.9834 2.88543 13.0166 2.88543 14.9703 3.3437C17.7916 4.0055 19.9946 6.20843 20.6564 9.02977C21.1146 10.9834 21.1146 13.0166 20.6564 14.9703C19.9946 17.7916 17.7916 19.9946 14.9703 20.6564C13.0166 21.1146 10.9834 21.1146 9.02977 20.6564C6.20843 19.9946 4.0055 17.7916 3.3437 14.9703C2.88543 13.0166 2.88543 10.9834 3.3437 9.02976C4.0055 6.20842 6.20842 4.0055 9.02977 3.3437ZM12.6 9.60678C12.6 9.27541 12.3314 9.00678 12 9.00678C11.6686 9.00678 11.4 9.27541 11.4 9.60678V11.4H9.60678C9.27541 11.4 9.00678 11.6686 9.00678 12C9.00678 12.3314 9.27541 12.6 9.60678 12.6H11.4V14.3932C11.4 14.7246 11.6686 14.9932 12 14.9932C12.3314 14.9932 12.6 14.7246 12.6 14.3932V12.6H14.3932C14.7246 12.6 14.9932 12.3314 14.9932 12C14.9932 11.6686 14.7246 11.4 14.3932 11.4H12.6V9.60678Z" fill="#2BA48F"/>
</svg>
