<svg id="Capa_1" enable-background="new 0 0 512 512" height="512" viewBox="0 0 512 512" width="512" xmlns="http://www.w3.org/2000/svg"><g><path d="m256 397.27 37.7 50.183-37.7 64.547c-92.1-.19-172.81-48.81-217.9-121.7l-12.46 12.43c-9.47 9.45-25.64 2.74-25.64-10.64l.01-137.15 64.82-36.18 50.14 36.18h18.21c12.73 0 19.7 14.84 11.55 24.64l-21.06 25.33c19.89 53.75 71.6 92.15 132.33 92.36z" fill="#cef"/><path d="m256.532 0 38.577 53.097-38.577 61.625v17.144c0 12.535-14.442 19.561-24.304 11.824l-25.469-19.981c-53.318 19.981-91.351 71.149-91.787 131.229h-114.961c.362-91.416 48.752-171.52 121.294-216.506l-12.792-12.766c-9.483-9.463-2.782-25.666 10.615-25.666z" fill="#4dc3ff"/><path d="m512 118.849v122.151c0 8.284-6.716 15-15 15h-118.139c-12.741 0-19.702-14.86-11.545-24.649l21.496-25.797c-20.352-53.112-71.904-90.832-132.279-90.832v-114.722c91.766 0 172.292 48.088 217.616 120.394l12.208-12.183c9.471-9.451 25.643-2.743 25.643 10.638z" fill="#39f"/><path d="m426.949 426.071c6.104 6.092 5.863 16.106-.605 21.81-45.236 39.897-104.69 64.119-169.814 64.119h-.53v-114.73c.18.01.35.01.53.01 34.208 0 65.589-12.115 90.058-32.277 5.958-4.91 14.665-4.5 20.129.954z" fill="#b3e5ff"/></g></svg>