<svg viewBox="0 0 512 512" xmlns="http://www.w3.org/2000/svg"><g id="_37_No_Recording"><path d="m393.32 374.64-47.84-26.37v-86.47l47.84-26.39a10.05 10.05 0 0 1 14.91 8.8v121.63a10.05 10.05 0 0 1 -14.91 8.8z" fill="#cfdce5"/><g fill="#4a5058"><path d="m261.57 222.88-151.46 151.46a31.85 31.85 0 0 1 -6.35-19.14v-100.32a32 32 0 0 1 32-32z"/><path d="m345.2 254.88v100.32a32 32 0 0 1 -32 32h-160.85l164.15-164.15a32 32 0 0 1 28.7 31.83z"/><circle cx="166.12" cy="183.88" r="39.64"/></g><path d="m190.8 293.65-53.24 53.24q-.06-.72-.06-1.47v-33.88a17.89 17.89 0 0 1 17.9-17.89z" fill="#f7f5fb"/><path d="m246.62 311.54v33.88a17.89 17.89 0 0 1 -17.89 17.9h-52.5l64.77-64.78a17.79 17.79 0 0 1 5.62 13z" fill="#f7f5fb"/><path d="m304.47 174.17a48.8 48.8 0 0 1 -.39 6.2l-42.77 42.77a48.8 48.8 0 0 1 -6.2.39 49.36 49.36 0 1 1 49.36-49.36z" fill="#4a5058"/><path d="m429.24 82.76a245 245 0 1 0 -346.48 346.48 245 245 0 1 0 346.48-346.48zm-173.24-32.76a205.09 205.09 0 0 1 131.19 47.25l-289.94 289.94a205.09 205.09 0 0 1 -47.25-131.19c0-113.61 92.39-206 206-206zm0 412a205.09 205.09 0 0 1 -131.19-47.28l289.94-289.91a205.09 205.09 0 0 1 47.25 131.19c0 113.61-92.39 206-206 206z" fill="#f46969"/><path d="m127.33 357.12-17.22 17.22a31.85 31.85 0 0 1 -6.35-19.14v-28.74q11.24 15.8 23.57 30.66z" fill="#3f4449"/><path d="m309.78 495.12a247.63 247.63 0 0 1 -53.78 5.88 245.31 245.31 0 0 1 -227.64-335.95 496.75 496.75 0 0 0 23 67.32 205.87 205.87 0 0 0 45.89 154.83l30.08-30.08q12.45 15 26.08 29l-28.61 28.63a205.15 205.15 0 0 0 122.31 47.1 496.75 496.75 0 0 0 62.67 33.27z" fill="#d85d5d"/></g></svg>
