<svg id="Layer_1" enable-background="new 0 0 24 24" height="512" viewBox="0 0 24 24" width="512" xmlns="http://www.w3.org/2000/svg"><g><g><path d="m21.3 5h-10c-.6 0-1-.4-1-1s.4-1 1-1h10c.6 0 1 .4 1 1s-.5 1-1 1z" fill="rgb(0,0,0)"/></g><g><path d="m6.8 21.5c-.3 0-.5-.1-.7-.3l-4-4c-.4-.4-.4-1 0-1.4s1-.4 1.4 0l4 4c.4.4.4 1 0 1.4-.2.2-.5.3-.7.3z" fill="rgb(0,0,0)"/></g><g><path d="m6.8 21.5c-.6 0-1-.4-1-1v-17c0-.6.4-1 1-1s1 .4 1 1v17c0 .6-.5 1-1 1z" fill="rgb(0,0,0)"/></g><g><path d="m19.3 10h-8c-.6 0-1-.4-1-1s.4-1 1-1h8c.6 0 1 .4 1 1s-.5 1-1 1z" fill="rgb(0,0,0)"/></g><g><path d="m17.3 15h-6c-.6 0-1-.4-1-1s.4-1 1-1h6c.6 0 1 .4 1 1s-.5 1-1 1z" fill="rgb(0,0,0)"/></g><g><path d="m15.3 20h-4c-.6 0-1-.4-1-1s.4-1 1-1h4c.6 0 1 .4 1 1s-.5 1-1 1z" fill="rgb(0,0,0)"/></g></g></svg>